<?xml version="1.0" standalone="no"?>
<!DOCTYPE svg PUBLIC "-//W3C//DTD SVG 20010904//EN"
 "http://www.w3.org/TR/2001/REC-SVG-20010904/DTD/svg10.dtd">
<svg version="1.0" xmlns="http://www.w3.org/2000/svg"
 width="225.000000pt" height="225.000000pt" viewBox="0 0 225.000000 225.000000"
 preserveAspectRatio="xMidYMid meet">

<g transform="translate(0.000000,225.000000) scale(0.100000,-0.100000)"
fill="#000000" stroke="none">
<path d="M920 2140 c-351 -76 -632 -310 -758 -630 -56 -144 -67 -209 -66 -395
1 -188 12 -251 75 -401 95 -227 312 -444 545 -543 145 -62 222 -76 409 -76
190 0 257 13 413 78 371 157 622 541 622 952 0 500 -355 925 -850 1019 -110
21 -283 19 -390 -4z m310 -100 c357 -43 656 -286 769 -626 84 -253 53 -534
-85 -766 -64 -109 -202 -246 -312 -312 -173 -103 -389 -151 -579 -127 -213 26
-397 115 -548 266 -151 152 -241 337 -266 549 -62 528 357 1008 896 1025 22 0
79 -4 125 -9z"/>
<path d="M909 1436 c-20 -7 -58 -30 -83 -51 l-46 -37 0 33 c0 51 -11 61 -61
57 l-44 -3 -3 -261 c-1 -143 1 -285 5 -315 l8 -54 45 0 45 0 5 220 c3 121 9
226 13 233 5 7 31 31 59 52 78 63 155 53 195 -23 14 -26 18 -74 22 -257 l6
-225 45 0 45 0 3 217 2 216 61 56 c54 50 65 56 103 56 49 0 90 -26 109 -69 7
-15 13 -117 17 -251 l5 -225 29 -3 c15 -2 38 -1 50 2 21 5 22 9 15 58 -4 29
-8 139 -8 244 -1 182 -2 192 -26 240 -32 63 -80 96 -149 102 -65 5 -107 -13
-176 -75 -42 -38 -49 -41 -54 -25 -11 32 -72 83 -112 93 -52 12 -82 11 -125
-5z"/>
</g>
</svg>
